<svg width="27" height="32" viewBox="0 0 27 32" fill="none" xmlns="http://www.w3.org/2000/svg">
<path d="M12.0249 27.7061L9.01416 29.2969L5.75439 31.0195L5.89307 27.3379L6.01709 23.9316L12.0249 27.7061ZM24.1265 8.90918L13.397 25.9902L6.97021 21.9531L17.6968 4.87207L24.1265 8.90918ZM21.2378 0.193359C21.686 0.0907858 22.1569 0.170736 22.5464 0.415039L26.0386 2.61035C26.8494 3.1193 27.0928 4.18761 26.5835 5L25.2866 7.0625L18.8569 3.02637L20.1558 0.961914C20.4003 0.572517 20.7896 0.295961 21.2378 0.193359Z" fill="#4586E4" stroke="white" stroke-width="0.3"/>
<g clip-path="url(#clip0_146_176)">
<mask id="path-2-inside-1_146_176" fill="white">
<path d="M10.2703 0.649902L9.58918 2.13639L8.1081 2.81207L9.58918 3.49315L10.2703 4.97423L10.9459 3.49315L12.4324 2.81207L10.9459 2.13639M4.86485 2.27153L3.5135 5.2445L0.540527 6.59585L3.5135 7.9472L4.86485 10.9202L6.21621 7.9472L9.18918 6.59585L6.21621 5.2445M10.2703 8.21748L9.58918 9.69856L8.1081 10.3796L9.58918 11.0553L10.2703 12.5418L10.9459 11.0553L12.4324 10.3796L10.9459 9.69856"/>
</mask>
<path d="M10.2703 0.649902L9.58918 2.13639L8.1081 2.81207L9.58918 3.49315L10.2703 4.97423L10.9459 3.49315L12.4324 2.81207L10.9459 2.13639M4.86485 2.27153L3.5135 5.2445L0.540527 6.59585L3.5135 7.9472L4.86485 10.9202L6.21621 7.9472L9.18918 6.59585L6.21621 5.2445M10.2703 8.21748L9.58918 9.69856L8.1081 10.3796L9.58918 11.0553L10.2703 12.5418L10.9459 11.0553L12.4324 10.3796L10.9459 9.69856" fill="#DCC986"/>
<path d="M9.58918 2.13639L9.7137 2.40933L9.81537 2.36295L9.86192 2.26135L9.58918 2.13639ZM8.1081 2.81207L7.98358 2.53913L7.38768 2.81098L7.98276 3.08463L8.1081 2.81207ZM9.58918 3.49315L9.86174 3.36781L9.81537 3.26696L9.71452 3.22059L9.58918 3.49315ZM10.2703 4.97423L9.9977 5.09957L10.2714 5.69465L10.5432 5.09875L10.2703 4.97423ZM10.9459 3.49315L10.821 3.22041L10.7194 3.26696L10.673 3.36863L10.9459 3.49315ZM12.4324 2.81207L12.5574 3.0848L13.155 2.81098L12.5566 2.53896L12.4324 2.81207ZM3.5135 5.2445L3.63764 5.51761L3.74006 5.47106L3.78661 5.36864L3.5135 5.2445ZM0.540527 6.59585L0.416386 6.32274L-0.184455 6.59585L0.416386 6.86896L0.540527 6.59585ZM3.5135 7.94721L3.78661 7.82306L3.74006 7.72065L3.63764 7.6741L3.5135 7.94721ZM4.86485 10.9202L4.59174 11.0443L4.86485 11.6452L5.13796 11.0443L4.86485 10.9202ZM6.21621 7.94721L6.09207 7.6741L5.98965 7.72065L5.9431 7.82306L6.21621 7.94721ZM9.18918 6.59585L9.31332 6.86896L9.91417 6.59585L9.31332 6.32274L9.18918 6.59585ZM9.58918 9.69856L9.71452 9.97112L9.81537 9.92474L9.86174 9.8239L9.58918 9.69856ZM8.1081 10.3796L7.98276 10.1071L7.38768 10.3807L7.98358 10.6526L8.1081 10.3796ZM9.58918 11.0553L9.86192 10.9304L9.81537 10.8288L9.7137 10.7824L9.58918 11.0553ZM10.2703 12.5418L9.99753 12.6668L10.2714 13.2644L10.5434 12.6659L10.2703 12.5418ZM10.9459 11.0553L10.8218 10.7822L10.7194 10.8288L10.6728 10.9312L10.9459 11.0553ZM12.4324 10.3796L12.5566 10.6527L13.155 10.3807L12.5574 10.1069L12.4324 10.3796ZM10.2703 0.649902L9.99753 0.52494L9.31645 2.01143L9.58918 2.13639L9.86192 2.26135L10.543 0.774865L10.2703 0.649902ZM9.58918 2.13639L9.46467 1.86345L7.98358 2.53913L8.1081 2.81207L8.23262 3.08501L9.7137 2.40933L9.58918 2.13639ZM8.1081 2.81207L7.98276 3.08463L9.46384 3.76571L9.58918 3.49315L9.71452 3.22059L8.23344 2.5395L8.1081 2.81207ZM9.58918 3.49315L9.31662 3.61849L9.9977 5.09957L10.2703 4.97423L10.5428 4.84889L9.86174 3.36781L9.58918 3.49315ZM10.2703 4.97423L10.5432 5.09875L11.2189 3.61766L10.9459 3.49315L10.673 3.36863L9.99732 4.84971L10.2703 4.97423ZM10.9459 3.49315L11.0709 3.76588L12.5574 3.0848L12.4324 2.81207L12.3075 2.53933L10.821 3.22041L10.9459 3.49315ZM12.4324 2.81207L12.5566 2.53896L11.0701 1.86328L10.9459 2.13639L10.8218 2.4095L12.3083 3.08518L12.4324 2.81207ZM4.86485 2.27153L4.59174 2.14738L3.24039 5.12036L3.5135 5.2445L3.78661 5.36864L5.13796 2.39567L4.86485 2.27153ZM3.5135 5.2445L3.38936 4.97139L0.416386 6.32274L0.540527 6.59585L0.664668 6.86896L3.63764 5.51761L3.5135 5.2445ZM0.540527 6.59585L0.416386 6.86896L3.38936 8.22031L3.5135 7.94721L3.63764 7.6741L0.664668 6.32274L0.540527 6.59585ZM3.5135 7.94721L3.24039 8.07135L4.59174 11.0443L4.86485 10.9202L5.13796 10.796L3.78661 7.82306L3.5135 7.94721ZM4.86485 10.9202L5.13796 11.0443L6.48932 8.07135L6.21621 7.94721L5.9431 7.82306L4.59174 10.796L4.86485 10.9202ZM6.21621 7.94721L6.34035 8.22031L9.31332 6.86896L9.18918 6.59585L9.06504 6.32274L6.09207 7.6741L6.21621 7.94721ZM9.18918 6.59585L9.31332 6.32274L6.34035 4.97139L6.21621 5.2445L6.09207 5.51761L9.06504 6.86896L9.18918 6.59585ZM10.2703 8.21748L9.9977 8.09214L9.31662 9.57322L9.58918 9.69856L9.86174 9.8239L10.5428 8.34281L10.2703 8.21748ZM9.58918 9.69856L9.46384 9.42599L7.98276 10.1071L8.1081 10.3796L8.23344 10.6522L9.71452 9.97112L9.58918 9.69856ZM8.1081 10.3796L7.98358 10.6526L9.46467 11.3283L9.58918 11.0553L9.7137 10.7824L8.23262 10.1067L8.1081 10.3796ZM9.58918 11.0553L9.31645 11.1803L9.99753 12.6668L10.2703 12.5418L10.543 12.4168L9.86192 10.9304L9.58918 11.0553ZM10.2703 12.5418L10.5434 12.6659L11.2191 11.1795L10.9459 11.0553L10.6728 10.9312L9.99715 12.4177L10.2703 12.5418ZM10.9459 11.0553L11.0701 11.3284L12.5566 10.6527L12.4324 10.3796L12.3083 10.1065L10.8218 10.7822L10.9459 11.0553ZM12.4324 10.3796L12.5574 10.1069L11.0709 9.42582L10.9459 9.69856L10.821 9.97129L12.3075 10.6524L12.4324 10.3796Z" fill="white" mask="url(#path-2-inside-1_146_176)"/>
</g>
<defs>
<clipPath id="clip0_146_176">
<rect width="12.973" height="12.973" fill="white" transform="translate(0 0.109375)"/>
</clipPath>
</defs>
</svg>
