<svg width="27" height="32" viewBox="0 0 27 32" fill="none" xmlns="http://www.w3.org/2000/svg">
<path d="M11.6235 27.6914L8.92041 29.1201L5.96826 30.6807L6.09229 27.3457V27.3447L6.20459 24.2852L11.6235 27.6914ZM23.8501 8.97266L13.3345 25.7139L7.24658 21.8906L17.7603 5.14746L23.8501 8.97266ZM21.2827 0.388672C21.6793 0.29795 22.0953 0.368803 22.4399 0.584961V0.583984L25.9321 2.7793C26.6491 3.2293 26.8653 4.1744 26.4146 4.89355L25.2231 6.78613L19.1333 2.96387L20.3257 1.06836C20.542 0.723927 20.8862 0.479406 21.2827 0.388672Z" fill="#4586E4" stroke="white" stroke-width="0.7"/>
<g clip-path="url(#clip0_146_176)">
<mask id="path-2-inside-1_146_176" fill="white">
<path d="M10.2703 0.649902L9.58918 2.13639L8.1081 2.81207L9.58918 3.49315L10.2703 4.97423L10.9459 3.49315L12.4324 2.81207L10.9459 2.13639M4.86485 2.27153L3.5135 5.2445L0.540527 6.59585L3.5135 7.9472L4.86485 10.9202L6.21621 7.9472L9.18918 6.59585L6.21621 5.2445M10.2703 8.21748L9.58918 9.69856L8.1081 10.3796L9.58918 11.0553L10.2703 12.5418L10.9459 11.0553L12.4324 10.3796L10.9459 9.69856"/>
</mask>
<path d="M10.2703 0.649902L9.58918 2.13639L8.1081 2.81207L9.58918 3.49315L10.2703 4.97423L10.9459 3.49315L12.4324 2.81207L10.9459 2.13639M4.86485 2.27153L3.5135 5.2445L0.540527 6.59585L3.5135 7.9472L4.86485 10.9202L6.21621 7.9472L9.18918 6.59585L6.21621 5.2445M10.2703 8.21748L9.58918 9.69856L8.1081 10.3796L9.58918 11.0553L10.2703 12.5418L10.9459 11.0553L12.4324 10.3796L10.9459 9.69856" fill="#DCC986"/>
<path d="M9.58918 2.13639L9.79671 2.59129L9.96616 2.51398L10.0437 2.34466L9.58918 2.13639ZM8.1081 2.81207L7.90057 2.35717L6.90741 2.81026L7.8992 3.26634L8.1081 2.81207ZM9.58918 3.49315L10.0435 3.28425L9.96616 3.11617L9.79808 3.03888L9.58918 3.49315ZM10.2703 4.97423L9.81599 5.18313L10.2721 6.17492L10.7252 5.18176L10.2703 4.97423ZM10.9459 3.49315L10.7377 3.03859L10.5683 3.11617L10.491 3.28562L10.9459 3.49315ZM12.4324 2.81207L12.6407 3.26662L13.6367 2.81025L12.6393 2.35688L12.4324 2.81207ZM3.5135 5.2445L3.7204 5.69968L3.8911 5.6221L3.96869 5.4514L3.5135 5.2445ZM0.540527 6.59585L0.333626 6.14067L-0.667777 6.59585L0.333626 7.05104L0.540527 6.59585ZM3.5135 7.94721L3.96869 7.7403L3.8911 7.56961L3.7204 7.49202L3.5135 7.94721ZM4.86485 10.9202L4.40967 11.1271L4.86485 12.1285L5.32004 11.1271L4.86485 10.9202ZM6.21621 7.94721L6.00931 7.49202L5.83861 7.56961L5.76102 7.7403L6.21621 7.94721ZM9.18918 6.59585L9.39608 7.05104L10.3975 6.59585L9.39608 6.14067L9.18918 6.59585ZM9.58918 9.69856L9.79808 10.1528L9.96616 10.0755L10.0435 9.90746L9.58918 9.69856ZM8.1081 10.3796L7.8992 9.92537L6.90741 10.3815L7.90057 10.8345L8.1081 10.3796ZM9.58918 11.0553L10.0437 10.847L9.96616 10.6777L9.79671 10.6004L9.58918 11.0553ZM10.2703 12.5418L9.81571 12.7501L10.2721 13.7461L10.7254 12.7487L10.2703 12.5418ZM10.9459 11.0553L10.739 10.6001L10.5683 10.6777L10.4908 10.8484L10.9459 11.0553ZM12.4324 10.3796L12.6393 10.8348L13.6367 10.3815L12.6407 9.92508L12.4324 10.3796ZM10.2703 0.649902L9.81571 0.441632L9.13462 1.92812L9.58918 2.13639L10.0437 2.34466L10.7248 0.858173L10.2703 0.649902ZM9.58918 2.13639L9.38166 1.68149L7.90057 2.35717L8.1081 2.81207L8.31563 3.26696L9.79671 2.59129L9.58918 2.13639ZM8.1081 2.81207L7.8992 3.26634L9.38028 3.94742L9.58918 3.49315L9.79808 3.03888L8.317 2.3578L8.1081 2.81207ZM9.58918 3.49315L9.13491 3.70205L9.81599 5.18313L10.2703 4.97423L10.7245 4.76533L10.0435 3.28425L9.58918 3.49315ZM10.2703 4.97423L10.7252 5.18176L11.4008 3.70067L10.9459 3.49315L10.491 3.28562L9.81537 4.7667L10.2703 4.97423ZM10.9459 3.49315L11.1542 3.94771L12.6407 3.26662L12.4324 2.81207L12.2242 2.35751L10.7377 3.03859L10.9459 3.49315ZM12.4324 2.81207L12.6393 2.35688L11.1528 1.68121L10.9459 2.13639L10.739 2.59157L12.2255 3.26725L12.4324 2.81207ZM4.86485 2.27153L4.40967 2.06462L3.05832 5.0376L3.5135 5.2445L3.96869 5.4514L5.32004 2.47843L4.86485 2.27153ZM3.5135 5.2445L3.3066 4.78932L0.333626 6.14067L0.540527 6.59585L0.747429 7.05104L3.7204 5.69968L3.5135 5.2445ZM0.540527 6.59585L0.333626 7.05104L3.3066 8.40239L3.5135 7.94721L3.7204 7.49202L0.747429 6.14067L0.540527 6.59585ZM3.5135 7.94721L3.05832 8.15411L4.40967 11.1271L4.86485 10.9202L5.32004 10.7133L3.96869 7.7403L3.5135 7.94721ZM4.86485 10.9202L5.32004 11.1271L6.67139 8.15411L6.21621 7.94721L5.76102 7.7403L4.40967 10.7133L4.86485 10.9202ZM6.21621 7.94721L6.42311 8.40239L9.39608 7.05104L9.18918 6.59585L8.98228 6.14067L6.00931 7.49202L6.21621 7.94721ZM9.18918 6.59585L9.39608 6.14067L6.42311 4.78932L6.21621 5.2445L6.00931 5.69968L8.98228 7.05104L9.18918 6.59585ZM10.2703 8.21748L9.81599 8.00858L9.13491 9.48966L9.58918 9.69856L10.0435 9.90746L10.7245 8.42637L10.2703 8.21748ZM9.58918 9.69856L9.38028 9.24429L7.8992 9.92537L8.1081 10.3796L8.317 10.8339L9.79808 10.1528L9.58918 9.69856ZM8.1081 10.3796L7.90057 10.8345L9.38166 11.5102L9.58918 11.0553L9.79671 10.6004L8.31563 9.92474L8.1081 10.3796ZM9.58918 11.0553L9.13462 11.2636L9.81571 12.7501L10.2703 12.5418L10.7248 12.3335L10.0437 10.847L9.58918 11.0553ZM10.2703 12.5418L10.7254 12.7487L11.4011 11.2622L10.9459 11.0553L10.4908 10.8484L9.81508 12.3349L10.2703 12.5418ZM10.9459 11.0553L11.1528 11.5105L12.6393 10.8348L12.4324 10.3796L12.2255 9.92446L10.739 10.6001L10.9459 11.0553ZM12.4324 10.3796L12.6407 9.92508L11.1542 9.244L10.9459 9.69856L10.7377 10.1531L12.2242 10.8342L12.4324 10.3796Z" fill="white" mask="url(#path-2-inside-1_146_176)"/>
</g>
<defs>
<clipPath id="clip0_146_176">
<rect width="12.973" height="12.973" fill="white" transform="translate(0 0.109375)"/>
</clipPath>
</defs>
</svg>
