<svg width="459" height="88" viewBox="0 0 459 88" fill="none" xmlns="http://www.w3.org/2000/svg">
    <path d="M99.853 76V25.0909H135.35V35.0838H112.158V45.5241H133.536V55.5419H112.158V66.0071H135.35V76H99.853ZM157.001 76.5469C154.184 76.5469 151.624 75.8177 149.32 74.3594C147.017 72.901 145.177 70.7135 143.802 67.7969C142.426 64.8802 141.739 61.2592 141.739 56.9339C141.739 52.4429 142.451 48.7474 143.876 45.8473C145.302 42.9472 147.166 40.8011 149.469 39.4091C151.79 38.017 154.284 37.321 156.952 37.321C158.957 37.321 160.672 37.669 162.097 38.3651C163.522 39.0445 164.699 39.9228 165.627 41C166.555 42.0772 167.259 43.1958 167.74 44.3558H167.989V25.0909H180.144V76H168.113V69.8104H167.74C167.226 70.987 166.497 72.089 165.553 73.1165C164.608 74.1439 163.423 74.9725 161.998 75.6023C160.589 76.232 158.924 76.5469 157.001 76.5469ZM161.227 67.076C162.702 67.076 163.962 66.6617 165.006 65.8331C166.05 64.9879 166.853 63.803 167.417 62.2784C167.98 60.7538 168.262 58.964 168.262 56.9091C168.262 54.821 167.98 53.023 167.417 51.5149C166.87 50.0069 166.066 48.8468 165.006 48.0348C163.962 47.2228 162.702 46.8168 161.227 46.8168C159.719 46.8168 158.443 47.2311 157.399 48.0597C156.355 48.8883 155.56 50.0566 155.013 51.5646C154.482 53.0727 154.217 54.8542 154.217 56.9091C154.217 58.964 154.491 60.7538 155.038 62.2784C155.585 63.803 156.372 64.9879 157.399 65.8331C158.443 66.6617 159.719 67.076 161.227 67.076ZM212.466 59.5192V37.8182H224.596V76H213.013V68.8906H212.615C211.77 71.2273 210.328 73.0833 208.29 74.4588C206.268 75.8177 203.823 76.4972 200.956 76.4972C198.355 76.4972 196.068 75.9006 194.096 74.7074C192.124 73.5142 190.591 71.8487 189.497 69.7109C188.403 67.5566 187.848 65.0376 187.831 62.1541V37.8182H199.987V59.7678C200.004 61.8393 200.55 63.4716 201.628 64.6648C202.705 65.858 204.171 66.4545 206.028 66.4545C207.237 66.4545 208.323 66.1894 209.284 65.6591C210.262 65.1122 211.032 64.325 211.596 63.2976C212.176 62.2536 212.466 60.9941 212.466 59.5192Z" fill="white"/>
    <path d="M243.346 76H230.121L247.298 25.0909H263.679L280.856 76H267.632L255.675 37.9176H255.277L243.346 76ZM241.581 55.9645H269.223V65.3111H241.581V55.9645ZM318.51 49.4766L307.349 49.7749C307.233 48.9794 306.918 48.2751 306.404 47.6619C305.89 47.0322 305.219 46.5433 304.39 46.1953C303.578 45.8307 302.634 45.6484 301.557 45.6484C300.148 45.6484 298.947 45.9302 297.952 46.4936C296.974 47.0571 296.494 47.8194 296.51 48.7805C296.494 49.5263 296.792 50.1726 297.405 50.7195C298.035 51.2663 299.154 51.7055 300.761 52.0369L308.119 53.429C311.931 54.1581 314.765 55.3679 316.621 57.0582C318.493 58.7486 319.438 60.9858 319.454 63.7699C319.438 66.3883 318.659 68.6669 317.118 70.6058C315.593 72.5447 313.505 74.0528 310.854 75.13C308.202 76.1906 305.169 76.7209 301.756 76.7209C296.303 76.7209 292.003 75.6023 288.854 73.3651C285.722 71.1113 283.932 68.0952 283.485 64.3168L295.491 64.0185C295.756 65.4105 296.444 66.4711 297.555 67.2003C298.665 67.9295 300.082 68.294 301.805 68.294C303.363 68.294 304.631 68.004 305.608 67.424C306.586 66.844 307.083 66.0734 307.1 65.1122C307.083 64.2505 306.702 63.5627 305.956 63.049C305.211 62.5187 304.042 62.1044 302.452 61.8061L295.79 60.5384C291.961 59.8423 289.111 58.558 287.238 56.6854C285.366 54.7962 284.438 52.3932 284.454 49.4766C284.438 46.9245 285.117 44.7453 286.493 42.9389C287.868 41.116 289.824 39.724 292.359 38.7628C294.895 37.8016 297.886 37.321 301.333 37.321C306.503 37.321 310.58 38.4065 313.563 40.5774C316.546 42.7318 318.195 45.6982 318.51 49.4766ZM358.773 49.4766L347.612 49.7749C347.496 48.9794 347.181 48.2751 346.668 47.6619C346.154 47.0322 345.483 46.5433 344.654 46.1953C343.842 45.8307 342.897 45.6484 341.82 45.6484C340.412 45.6484 339.21 45.9302 338.216 46.4936C337.238 47.0571 336.758 47.8194 336.774 48.7805C336.758 49.5263 337.056 50.1726 337.669 50.7195C338.299 51.2663 339.417 51.7055 341.025 52.0369L348.383 53.429C352.194 54.1581 355.028 55.3679 356.884 57.0582C358.757 58.7486 359.701 60.9858 359.718 63.7699C359.701 66.3883 358.923 68.6669 357.381 70.6058C355.857 72.5447 353.769 74.0528 351.117 75.13C348.466 76.1906 345.433 76.7209 342.019 76.7209C336.567 76.7209 332.267 75.6023 329.118 73.3651C325.986 71.1113 324.196 68.0952 323.749 64.3168L335.755 64.0185C336.02 65.4105 336.708 66.4711 337.818 67.2003C338.929 67.9295 340.345 68.294 342.069 68.294C343.627 68.294 344.894 68.004 345.872 67.424C346.85 66.844 347.347 66.0734 347.364 65.1122C347.347 64.2505 346.966 63.5627 346.22 63.049C345.474 62.5187 344.306 62.1044 342.715 61.8061L336.053 60.5384C332.225 59.8423 329.375 58.558 327.502 56.6854C325.629 54.7962 324.701 52.3932 324.718 49.4766C324.701 46.9245 325.381 44.7453 326.756 42.9389C328.132 41.116 330.087 39.724 332.623 38.7628C335.158 37.8016 338.15 37.321 341.597 37.321C346.767 37.321 350.844 38.4065 353.827 40.5774C356.81 42.7318 358.459 45.6982 358.773 49.4766ZM365.703 76V37.8182H377.858V76H365.703ZM371.793 33.3686C370.086 33.3686 368.619 32.8052 367.393 31.6783C366.167 30.5348 365.553 29.1593 365.553 27.5518C365.553 25.9609 366.167 24.602 367.393 23.4751C368.619 22.3317 370.086 21.7599 371.793 21.7599C373.516 21.7599 374.983 22.3317 376.193 23.4751C377.419 24.602 378.032 25.9609 378.032 27.5518C378.032 29.1593 377.419 30.5348 376.193 31.6783C374.983 32.8052 373.516 33.3686 371.793 33.3686ZM418.93 49.4766L407.768 49.7749C407.652 48.9794 407.338 48.2751 406.824 47.6619C406.31 47.0322 405.639 46.5433 404.81 46.1953C403.998 45.8307 403.054 45.6484 401.977 45.6484C400.568 45.6484 399.366 45.9302 398.372 46.4936C397.394 47.0571 396.914 47.8194 396.93 48.7805C396.914 49.5263 397.212 50.1726 397.825 50.7195C398.455 51.2663 399.574 51.7055 401.181 52.0369L408.539 53.429C412.351 54.1581 415.184 55.3679 417.04 57.0582C418.913 58.7486 419.858 60.9858 419.874 63.7699C419.858 66.3883 419.079 68.6669 417.538 70.6058C416.013 72.5447 413.925 74.0528 411.273 75.13C408.622 76.1906 405.589 76.7209 402.175 76.7209C396.723 76.7209 392.423 75.6023 389.274 73.3651C386.142 71.1113 384.352 68.0952 383.905 64.3168L395.911 64.0185C396.176 65.4105 396.864 66.4711 397.974 67.2003C399.085 67.9295 400.502 68.294 402.225 68.294C403.783 68.294 405.051 68.004 406.028 67.424C407.006 66.844 407.503 66.0734 407.52 65.1122C407.503 64.2505 407.122 63.5627 406.376 63.049C405.631 62.5187 404.462 62.1044 402.871 61.8061L396.21 60.5384C392.381 59.8423 389.531 58.558 387.658 56.6854C385.786 54.7962 384.858 52.3932 384.874 49.4766C384.858 46.9245 385.537 44.7453 386.913 42.9389C388.288 41.116 390.244 39.724 392.779 38.7628C395.315 37.8016 398.306 37.321 401.753 37.321C406.923 37.321 411 38.4065 413.983 40.5774C416.966 42.7318 418.615 45.6982 418.93 49.4766ZM447.411 37.8182V46.767H423.323V37.8182H447.411ZM428.369 28.6705H440.525V63.9936C440.525 64.7393 440.641 65.3442 440.873 65.8082C441.122 66.2557 441.478 66.5788 441.942 66.7777C442.406 66.96 442.961 67.0511 443.607 67.0511C444.071 67.0511 444.56 67.0097 445.074 66.9268C445.604 66.8274 446.002 66.7446 446.267 66.6783L448.107 75.4531C447.527 75.6188 446.706 75.826 445.646 76.0746C444.602 76.3232 443.351 76.4806 441.892 76.5469C439.042 76.6795 436.597 76.348 434.559 75.5526C432.537 74.7405 430.988 73.4811 429.911 71.7741C428.85 70.0672 428.336 67.9212 428.369 65.3359V28.6705Z" fill="#C4DAFB"/>
    <path d="M33.5068 77.5693L25.2012 81.9551L16.2002 86.7158L16.5791 76.5449L16.9219 67.1475L33.5068 77.5693ZM67.4395 24.9707L37.4873 72.6582L19.6279 61.4424L49.5752 13.752L67.4395 24.9707ZM59.4814 0.620117C60.6389 0.355238 61.8509 0.531611 62.8818 1.10938L63.085 1.23047L72.8623 7.37598C75.0253 8.73355 75.7219 11.5363 74.4883 13.7441L74.3633 13.9561L70.7744 19.6631L52.9102 8.4502L56.502 2.7373C57.1752 1.6647 58.247 0.902658 59.4814 0.620117Z" fill="#4586E4" stroke="white"/>
    <mask id="path-3-inside-1_4236_87" fill="white">
    <path d="M28.7556 1.81934L26.8486 5.98129L22.7018 7.87309L26.8486 9.78002L28.7556 13.9268L30.6473 9.78002L34.8093 7.87309L30.6473 5.98129M13.6212 6.35965L9.83758 14.6836L1.51367 18.4672L9.83758 22.2507L13.6212 30.5747L17.4048 22.2507L25.7287 18.4672L17.4048 14.6836M28.7556 23.0075L26.8486 27.1543L22.7018 29.0612L26.8486 30.953L28.7556 35.115L30.6473 30.953L34.8093 29.0612L30.6473 27.1543"/>
    </mask>
    <path d="M28.7556 1.81934L26.8486 5.98129L22.7018 7.87309L26.8486 9.78002L28.7556 13.9268L30.6473 9.78002L34.8093 7.87309L30.6473 5.98129M13.6212 6.35965L9.83758 14.6836L1.51367 18.4672L9.83758 22.2507L13.6212 30.5747L17.4048 22.2507L25.7287 18.4672L17.4048 14.6836M28.7556 23.0075L26.8486 27.1543L22.7018 29.0612L26.8486 30.953L28.7556 35.115L30.6473 30.953L34.8093 29.0612L30.6473 27.1543" fill="#DCC986"/>
    <path d="M26.8486 5.98129L27.2637 6.89109L27.6026 6.73648L27.7577 6.39783L26.8486 5.98129ZM22.7018 7.87309L22.2867 6.96329L20.3004 7.86946L22.284 8.78163L22.7018 7.87309ZM26.8486 9.78002L27.7572 9.36222L27.6026 9.02606L27.2664 8.87148L26.8486 9.78002ZM28.7556 13.9268L27.847 14.3446L28.7592 16.3282L29.6653 14.3419L28.7556 13.9268ZM30.6473 9.78002L30.2308 8.8709L29.8922 9.02606L29.7376 9.36497L30.6473 9.78002ZM34.8093 7.87309L35.2258 8.7822L37.2179 7.86946L35.2231 6.96272L34.8093 7.87309ZM9.83758 14.6836L10.2514 15.5939L10.5928 15.4387L10.7479 15.0974L9.83758 14.6836ZM1.51367 18.4672L1.09987 17.5568L-0.902937 18.4672L1.09987 19.3775L1.51367 18.4672ZM9.83758 22.2507L10.7479 21.8369L10.5928 21.4956L10.2514 21.3404L9.83758 22.2507ZM13.6212 30.5747L12.7108 30.9885L13.6212 32.9913L14.5315 30.9885L13.6212 30.5747ZM17.4048 22.2507L16.991 21.3404L16.6496 21.4956L16.4944 21.8369L17.4048 22.2507ZM25.7287 18.4672L26.1425 19.3775L28.1453 18.4672L26.1425 17.5568L25.7287 18.4672ZM26.8486 27.1543L27.2664 28.0628L27.6026 27.9082L27.7572 27.5721L26.8486 27.1543ZM22.7018 29.0612L22.284 28.1527L20.3004 29.0648L22.2867 29.971L22.7018 29.0612ZM26.8486 30.953L27.7577 30.5365L27.6026 30.1978L27.2637 30.0432L26.8486 30.953ZM28.7556 35.115L27.8464 35.5315L28.7592 37.5236L29.6659 35.5288L28.7556 35.115ZM30.6473 30.953L30.2335 30.0426L29.8922 30.1978L29.737 30.5392L30.6473 30.953ZM34.8093 29.0612L35.2231 29.9716L37.2179 29.0648L35.2258 28.1521L34.8093 29.0612ZM28.7556 1.81934L27.8464 1.40279L25.9395 5.56475L26.8486 5.98129L27.7577 6.39783L29.6647 2.23588L28.7556 1.81934ZM26.8486 5.98129L26.4336 5.07149L22.2867 6.96329L22.7018 7.87309L23.1169 8.78288L27.2637 6.89109L26.8486 5.98129ZM22.7018 7.87309L22.284 8.78163L26.4308 10.6886L26.8486 9.78002L27.2664 8.87148L23.1196 6.96455L22.7018 7.87309ZM26.8486 9.78002L25.9401 10.1978L27.847 14.3446L28.7556 13.9268L29.6641 13.509L27.7572 9.36222L26.8486 9.78002ZM28.7556 13.9268L29.6653 14.3419L31.5571 10.1951L30.6473 9.78002L29.7376 9.36497L27.8458 13.5118L28.7556 13.9268ZM30.6473 9.78002L31.0639 10.6891L35.2258 8.7822L34.8093 7.87309L34.3928 6.96397L30.2308 8.8709L30.6473 9.78002ZM34.8093 7.87309L35.2231 6.96272L31.0612 5.07092L30.6473 5.98129L30.2335 6.89166L34.3955 8.78345L34.8093 7.87309ZM13.6212 6.35965L12.7108 5.94585L8.92721 14.2698L9.83758 14.6836L10.7479 15.0974L14.5315 6.77345L13.6212 6.35965ZM9.83758 14.6836L9.42378 13.7732L1.09987 17.5568L1.51367 18.4672L1.92747 19.3775L10.2514 15.5939L9.83758 14.6836ZM1.51367 18.4672L1.09987 19.3775L9.42378 23.1611L9.83758 22.2507L10.2514 21.3404L1.92747 17.5568L1.51367 18.4672ZM9.83758 22.2507L8.92721 22.6645L12.7108 30.9885L13.6212 30.5747L14.5315 30.1609L10.7479 21.8369L9.83758 22.2507ZM13.6212 30.5747L14.5315 30.9885L18.3151 22.6645L17.4048 22.2507L16.4944 21.8369L12.7108 30.1609L13.6212 30.5747ZM17.4048 22.2507L17.8186 23.1611L26.1425 19.3775L25.7287 18.4672L25.3149 17.5568L16.991 21.3404L17.4048 22.2507ZM25.7287 18.4672L26.1425 17.5568L17.8186 13.7732L17.4048 14.6836L16.991 15.5939L25.3149 19.3775L25.7287 18.4672ZM28.7556 23.0075L27.847 22.5897L25.9401 26.7365L26.8486 27.1543L27.7572 27.5721L29.6641 23.4253L28.7556 23.0075ZM26.8486 27.1543L26.4308 26.2457L22.284 28.1527L22.7018 29.0612L23.1196 29.9698L27.2664 28.0628L26.8486 27.1543ZM22.7018 29.0612L22.2867 29.971L26.4336 31.8628L26.8486 30.953L27.2637 30.0432L23.1169 28.1514L22.7018 29.0612ZM26.8486 30.953L25.9395 31.3696L27.8464 35.5315L28.7556 35.115L29.6647 34.6984L27.7577 30.5365L26.8486 30.953ZM28.7556 35.115L29.6659 35.5288L31.5577 31.3668L30.6473 30.953L29.737 30.5392L27.8452 34.7012L28.7556 35.115ZM30.6473 30.953L31.0612 31.8634L35.2231 29.9716L34.8093 29.0612L34.3955 28.1508L30.2335 30.0426L30.6473 30.953ZM34.8093 29.0612L35.2258 28.1521L31.0639 26.2452L30.6473 27.1543L30.2308 28.0634L34.3928 29.9703L34.8093 29.0612Z" fill="white" mask="url(#path-3-inside-1_4236_87)"/>
    </svg>